<svg width="840" height="343" viewBox="0 0 840 343" fill="none" xmlns="http://www.w3.org/2000/svg">
<ellipse cx="117" cy="116.195" rx="87.9424" ry="86.1688" transform="rotate(26.2731 117 116.195)" fill="#820AD1"/>
<ellipse cx="91.9908" cy="138.695" rx="37.2003" ry="36.4501" transform="rotate(26.2731 91.9908 138.695)" fill="white"/>
<path d="M284.314 173.195V79.0869H305.507L306.046 96.1484H306.225C311.613 85.0135 320.952 76.5726 337.115 76.5726C357.051 76.5726 369.981 90.581 369.981 112.492V173.195H348.25V117.7C348.25 102.434 340.169 93.6341 327.597 93.6341C314.486 93.6341 306.046 103.153 306.046 119.137V173.195H284.314ZM414.459 175.709C394.524 175.709 381.953 161.88 381.953 139.97V79.0869H403.684V134.582C403.684 149.847 411.406 158.648 423.978 158.648C436.729 158.648 444.99 149.129 444.99 133.145V79.0869H466.721V173.195H445.709L444.99 156.133H444.811C439.423 167.268 430.443 175.709 414.459 175.709ZM512.832 175.709C490.922 175.709 475.297 164.395 474.758 144.639H495.232C495.232 153.08 502.236 158.648 512.832 158.648C522.71 158.648 529.176 154.517 529.176 147.692C529.176 140.868 524.506 136.917 507.983 133.325C488.587 129.014 476.913 121.831 476.913 104.769C476.913 89.3238 489.665 76.5726 511.216 76.5726C532.768 76.5726 547.135 89.5034 547.674 106.745H527.739C527.559 99.3812 520.914 93.6341 511.575 93.6341C502.596 93.6341 497.028 97.9444 497.028 103.871C497.028 110.516 500.979 112.671 517.682 116.622C540.849 122.19 549.47 131.888 549.47 147.333C549.47 164.395 534.923 175.709 512.832 175.709ZM557.636 205.881V79.0869H578.289L578.648 97.7648H578.828C584.396 84.4748 594.812 76.5726 611.335 76.5726C634.682 76.5726 652.642 95.2505 652.642 126.141C652.642 157.031 634.862 175.709 610.976 175.709C597.686 175.709 586.191 170.68 579.367 160.982V205.881H557.636ZM604.869 156.852C620.494 156.852 630.911 144.46 630.911 126.141C630.911 107.822 620.494 95.4301 604.869 95.4301C589.245 95.4301 578.648 108.002 578.648 126.141C578.648 144.639 589.245 156.852 604.869 156.852ZM704.177 175.709C675.083 175.709 656.225 154.696 656.225 126.141C656.225 97.4056 675.083 76.5726 704.177 76.5726C733.451 76.5726 752.129 97.5852 752.129 126.141C752.129 154.696 733.451 175.709 704.177 175.709ZM704.177 156.672C721.418 156.672 731.476 144.1 731.476 126.141C731.476 108.002 721.239 95.7893 704.177 95.7893C687.116 95.7893 676.879 108.181 676.879 126.141C676.879 144.1 687.116 156.672 704.177 156.672ZM794.828 175.709C775.791 175.709 764.656 164.574 764.656 141.586V97.5852H749.211V84.6544C764.835 79.6257 772.199 72.6215 774.893 54.8416H786.387V79.0869H807.759V97.5852H786.387V140.868C786.387 152.362 791.595 157.031 800.575 157.031C803.628 157.031 806.681 156.492 809.375 155.235V173.195C805.783 174.811 800.036 175.709 794.828 175.709Z" fill="#820AD1"/>
<path d="M44.2384 281L29.5715 227.361H36.1716L47.3814 271.047H47.9052L59.3245 227.361H66.6579L78.0772 271.047H78.601L89.8108 227.361H96.4109L81.744 281H75.0391L63.2007 238.256H62.7817L50.9433 281H44.2384ZM107.542 256.799V281H101.361V227.361H107.542V247.056H108.066C109.009 244.979 110.423 243.329 112.309 242.106C114.212 240.867 116.744 240.247 119.904 240.247C122.646 240.247 125.046 240.797 127.107 241.897C129.167 242.979 130.765 244.647 131.9 246.899C133.052 249.134 133.628 251.98 133.628 255.438V281H127.447V255.857C127.447 252.661 126.618 250.191 124.959 248.445C123.318 246.681 121.039 245.799 118.123 245.799C116.098 245.799 114.282 246.227 112.676 247.083C111.087 247.938 109.829 249.187 108.904 250.828C107.996 252.469 107.542 254.46 107.542 256.799ZM159.499 281.838C155.622 281.838 152.279 280.983 149.467 279.271C146.674 277.543 144.517 275.133 142.998 272.043C141.497 268.935 140.746 265.32 140.746 261.2C140.746 257.079 141.497 253.447 142.998 250.304C144.517 247.144 146.63 244.682 149.336 242.918C152.06 241.137 155.238 240.247 158.87 240.247C160.965 240.247 163.034 240.596 165.077 241.294C167.12 241.993 168.98 243.128 170.656 244.699C172.332 246.253 173.668 248.314 174.663 250.88C175.658 253.447 176.156 256.607 176.156 260.361V262.981H145.146V257.638H169.87C169.87 255.368 169.416 253.342 168.508 251.561C167.618 249.78 166.343 248.375 164.684 247.345C163.043 246.314 161.105 245.799 158.87 245.799C156.408 245.799 154.278 246.41 152.479 247.633C150.698 248.837 149.328 250.409 148.367 252.347C147.407 254.285 146.927 256.363 146.927 258.58V262.142C146.927 265.181 147.451 267.756 148.498 269.869C149.563 271.964 151.039 273.562 152.925 274.662C154.81 275.744 157.002 276.286 159.499 276.286C161.122 276.286 162.589 276.059 163.899 275.605C165.226 275.133 166.369 274.435 167.33 273.509C168.29 272.566 169.032 271.397 169.556 270L175.527 271.676C174.899 273.701 173.842 275.482 172.358 277.019C170.874 278.538 169.041 279.725 166.858 280.581C164.676 281.419 162.222 281.838 159.499 281.838ZM183.254 281V240.771H189.225V246.847H189.644C190.378 244.856 191.705 243.241 193.625 242.002C195.546 240.762 197.711 240.142 200.121 240.142C200.575 240.142 201.142 240.151 201.823 240.168C202.504 240.186 203.019 240.212 203.369 240.247V246.533C203.159 246.48 202.679 246.402 201.928 246.297C201.195 246.175 200.418 246.114 199.597 246.114C197.641 246.114 195.895 246.524 194.359 247.345C192.84 248.148 191.635 249.265 190.744 250.697C189.871 252.111 189.435 253.726 189.435 255.542V281H183.254ZM224.033 281.838C220.157 281.838 216.813 280.983 214.002 279.271C211.208 277.543 209.052 275.133 207.533 272.043C206.031 268.935 205.28 265.32 205.28 261.2C205.28 257.079 206.031 253.447 207.533 250.304C209.052 247.144 211.165 244.682 213.871 242.918C216.595 241.137 219.773 240.247 223.405 240.247C225.5 240.247 227.569 240.596 229.612 241.294C231.655 241.993 233.514 243.128 235.191 244.699C236.867 246.253 238.203 248.314 239.198 250.88C240.193 253.447 240.691 256.607 240.691 260.361V262.981H209.681V257.638H234.405C234.405 255.368 233.951 253.342 233.043 251.561C232.152 249.78 230.878 248.375 229.219 247.345C227.578 246.314 225.64 245.799 223.405 245.799C220.943 245.799 218.812 246.41 217.014 247.633C215.233 248.837 213.862 250.409 212.902 252.347C211.942 254.285 211.462 256.363 211.462 258.58V262.142C211.462 265.181 211.985 267.756 213.033 269.869C214.098 271.964 215.574 273.562 217.459 274.662C219.345 275.744 221.536 276.286 224.033 276.286C225.657 276.286 227.124 276.059 228.433 275.605C229.76 275.133 230.904 274.435 231.864 273.509C232.825 272.566 233.567 271.397 234.091 270L240.062 271.676C239.434 273.701 238.377 275.482 236.893 277.019C235.409 278.538 233.575 279.725 231.393 280.581C229.21 281.419 226.757 281.838 224.033 281.838ZM283.723 240.771V246.009H262.874V240.771H283.723ZM268.951 231.132H275.132V269.476C275.132 271.222 275.385 272.532 275.891 273.405C276.415 274.26 277.079 274.836 277.882 275.133C278.703 275.413 279.567 275.552 280.475 275.552C281.156 275.552 281.715 275.517 282.151 275.448C282.588 275.36 282.937 275.29 283.199 275.238L284.456 280.79C284.037 280.948 283.452 281.105 282.701 281.262C281.95 281.437 280.999 281.524 279.846 281.524C278.1 281.524 276.389 281.148 274.713 280.398C273.054 279.647 271.675 278.503 270.575 276.967C269.492 275.43 268.951 273.492 268.951 271.152V231.132ZM297.761 256.799V281H291.58V227.361H297.761V247.056H298.285C299.228 244.979 300.642 243.329 302.528 242.106C304.431 240.867 306.963 240.247 310.123 240.247C312.864 240.247 315.265 240.797 317.326 241.897C319.386 242.979 320.984 244.647 322.119 246.899C323.271 249.134 323.847 251.98 323.847 255.438V281H317.666V255.857C317.666 252.661 316.837 250.191 315.178 248.445C313.537 246.681 311.258 245.799 308.342 245.799C306.317 245.799 304.501 246.227 302.894 247.083C301.305 247.938 300.048 249.187 299.123 250.828C298.215 252.469 297.761 254.46 297.761 256.799ZM332.85 281V240.771H339.031V281H332.85ZM335.993 234.066C334.788 234.066 333.75 233.655 332.877 232.835C332.021 232.014 331.593 231.028 331.593 229.875C331.593 228.723 332.021 227.736 332.877 226.916C333.75 226.095 334.788 225.685 335.993 225.685C337.198 225.685 338.228 226.095 339.084 226.916C339.957 227.736 340.393 228.723 340.393 229.875C340.393 231.028 339.957 232.014 339.084 232.835C338.228 233.655 337.198 234.066 335.993 234.066ZM354.229 256.799V281H348.048V240.771H354.019V247.056H354.543C355.486 245.014 356.918 243.372 358.838 242.133C360.759 240.875 363.238 240.247 366.277 240.247C369.001 240.247 371.384 240.806 373.427 241.923C375.47 243.023 377.059 244.699 378.194 246.952C379.329 249.187 379.896 252.015 379.896 255.438V281H373.715V255.857C373.715 252.696 372.894 250.234 371.253 248.471C369.612 246.69 367.359 245.799 364.496 245.799C362.523 245.799 360.759 246.227 359.205 247.083C357.669 247.938 356.455 249.187 355.565 250.828C354.674 252.469 354.229 254.46 354.229 256.799ZM405.124 296.924C402.139 296.924 399.572 296.54 397.424 295.772C395.277 295.021 393.487 294.026 392.055 292.786C390.641 291.564 389.515 290.254 388.676 288.857L393.6 285.4C394.159 286.133 394.866 286.972 395.722 287.914C396.577 288.875 397.747 289.704 399.231 290.403C400.733 291.118 402.697 291.476 405.124 291.476C408.372 291.476 411.052 290.691 413.165 289.119C415.278 287.548 416.334 285.086 416.334 281.733V273.562H415.81C415.356 274.295 414.71 275.203 413.872 276.286C413.052 277.351 411.864 278.302 410.31 279.14C408.774 279.961 406.696 280.371 404.077 280.371C400.829 280.371 397.913 279.603 395.329 278.067C392.762 276.53 390.728 274.295 389.227 271.362C387.742 268.428 387 264.866 387 260.676C387 256.555 387.725 252.967 389.174 249.911C390.623 246.838 392.64 244.464 395.224 242.787C397.808 241.094 400.794 240.247 404.182 240.247C406.801 240.247 408.878 240.683 410.415 241.556C411.969 242.412 413.156 243.39 413.977 244.49C414.815 245.572 415.461 246.463 415.915 247.161H416.544V240.771H422.515V282.152C422.515 285.61 421.73 288.421 420.158 290.586C418.604 292.768 416.509 294.366 413.872 295.379C411.253 296.409 408.337 296.924 405.124 296.924ZM404.915 274.819C407.394 274.819 409.49 274.251 411.201 273.117C412.912 271.982 414.213 270.349 415.103 268.219C415.994 266.089 416.439 263.539 416.439 260.571C416.439 257.673 416.002 255.115 415.129 252.897C414.256 250.68 412.964 248.942 411.253 247.685C409.542 246.428 407.429 245.799 404.915 245.799C402.296 245.799 400.113 246.463 398.367 247.79C396.639 249.117 395.338 250.898 394.465 253.133C393.609 255.368 393.181 257.847 393.181 260.571C393.181 263.365 393.618 265.835 394.491 267.983C395.381 270.113 396.691 271.789 398.42 273.012C400.166 274.217 402.331 274.819 404.915 274.819ZM460.021 249.78L454.468 251.352C454.119 250.426 453.604 249.527 452.923 248.654C452.26 247.764 451.352 247.03 450.199 246.454C449.047 245.878 447.571 245.59 445.773 245.59C443.311 245.59 441.259 246.157 439.618 247.292C437.994 248.41 437.182 249.833 437.182 251.561C437.182 253.098 437.741 254.311 438.858 255.202C439.976 256.092 441.722 256.834 444.097 257.428L450.068 258.895C453.665 259.768 456.345 261.104 458.109 262.902C459.872 264.683 460.754 266.979 460.754 269.79C460.754 272.095 460.091 274.155 458.764 275.971C457.454 277.787 455.621 279.219 453.264 280.267C450.906 281.314 448.165 281.838 445.04 281.838C440.936 281.838 437.54 280.948 434.851 279.167C432.162 277.386 430.46 274.784 429.744 271.362L435.611 269.895C436.17 272.06 437.226 273.684 438.78 274.767C440.351 275.849 442.403 276.39 444.935 276.39C447.816 276.39 450.103 275.779 451.797 274.557C453.508 273.317 454.364 271.833 454.364 270.105C454.364 268.708 453.875 267.538 452.897 266.595C451.919 265.635 450.417 264.919 448.392 264.447L441.687 262.876C438.003 262.003 435.297 260.65 433.568 258.816C431.857 256.965 431.001 254.652 431.001 251.876C431.001 249.606 431.638 247.598 432.913 245.852C434.205 244.106 435.96 242.735 438.178 241.74C440.412 240.744 442.944 240.247 445.773 240.247C449.754 240.247 452.879 241.12 455.149 242.866C457.437 244.612 459.06 246.917 460.021 249.78ZM502.431 296.924C499.445 296.924 496.878 296.54 494.73 295.772C492.583 295.021 490.793 294.026 489.361 292.786C487.947 291.564 486.821 290.254 485.983 288.857L490.907 285.4C491.465 286.133 492.172 286.972 493.028 287.914C493.884 288.875 495.053 289.704 496.538 290.403C498.039 291.118 500.004 291.476 502.431 291.476C505.678 291.476 508.359 290.691 510.471 289.119C512.584 287.548 513.64 285.086 513.64 281.733V273.562H513.117C512.663 274.295 512.017 275.203 511.178 276.286C510.358 277.351 509.17 278.302 507.616 279.14C506.08 279.961 504.002 280.371 501.383 280.371C498.135 280.371 495.219 279.603 492.635 278.067C490.068 276.53 488.034 274.295 486.533 271.362C485.049 268.428 484.306 264.866 484.306 260.676C484.306 256.555 485.031 252.967 486.48 249.911C487.93 246.838 489.946 244.464 492.53 242.787C495.115 241.094 498.1 240.247 501.488 240.247C504.107 240.247 506.185 240.683 507.721 241.556C509.275 242.412 510.463 243.39 511.283 244.49C512.121 245.572 512.767 246.463 513.221 247.161H513.85V240.771H519.821V282.152C519.821 285.61 519.036 288.421 517.464 290.586C515.91 292.768 513.815 294.366 511.178 295.379C508.559 296.409 505.643 296.924 502.431 296.924ZM502.221 274.819C504.701 274.819 506.796 274.251 508.507 273.117C510.218 271.982 511.519 270.349 512.409 268.219C513.3 266.089 513.745 263.539 513.745 260.571C513.745 257.673 513.309 255.115 512.436 252.897C511.563 250.68 510.27 248.942 508.559 247.685C506.848 246.428 504.735 245.799 502.221 245.799C499.602 245.799 497.419 246.463 495.673 247.79C493.945 249.117 492.644 250.898 491.771 253.133C490.915 255.368 490.488 257.847 490.488 260.571C490.488 263.365 490.924 265.835 491.797 267.983C492.688 270.113 493.997 271.789 495.726 273.012C497.472 274.217 499.637 274.819 502.221 274.819ZM545.698 281.838C541.822 281.838 538.478 280.983 535.667 279.271C532.873 277.543 530.717 275.133 529.198 272.043C527.696 268.935 526.945 265.32 526.945 261.2C526.945 257.079 527.696 253.447 529.198 250.304C530.717 247.144 532.83 244.682 535.536 242.918C538.26 241.137 541.438 240.247 545.07 240.247C547.165 240.247 549.234 240.596 551.277 241.294C553.32 241.993 555.179 243.128 556.856 244.699C558.532 246.253 559.868 248.314 560.863 250.88C561.858 253.447 562.356 256.607 562.356 260.361V262.981H531.346V257.638H556.07C556.07 255.368 555.616 253.342 554.708 251.561C553.817 249.78 552.543 248.375 550.884 247.345C549.243 246.314 547.305 245.799 545.07 245.799C542.608 245.799 540.477 246.41 538.679 247.633C536.898 248.837 535.527 250.409 534.567 252.347C533.607 254.285 533.127 256.363 533.127 258.58V262.142C533.127 265.181 533.65 267.756 534.698 269.869C535.763 271.964 537.238 273.562 539.124 274.662C541.01 275.744 543.201 276.286 545.698 276.286C547.322 276.286 548.789 276.059 550.098 275.605C551.425 275.133 552.569 274.435 553.529 273.509C554.49 272.566 555.232 271.397 555.756 270L561.727 271.676C561.099 273.701 560.042 275.482 558.558 277.019C557.074 278.538 555.24 279.725 553.058 280.581C550.875 281.419 548.422 281.838 545.698 281.838ZM586.949 240.771V246.009H566.101V240.771H586.949ZM572.177 231.132H578.358V269.476C578.358 271.222 578.612 272.532 579.118 273.405C579.642 274.26 580.305 274.836 581.108 275.133C581.929 275.413 582.793 275.552 583.701 275.552C584.382 275.552 584.941 275.517 585.378 275.448C585.814 275.36 586.163 275.29 586.425 275.238L587.682 280.79C587.263 280.948 586.678 281.105 585.928 281.262C585.177 281.437 584.225 281.524 583.073 281.524C581.327 281.524 579.616 281.148 577.939 280.398C576.281 279.647 574.901 278.503 573.801 276.967C572.719 275.43 572.177 273.492 572.177 271.152V231.132ZM621.718 249.78L616.165 251.352C615.816 250.426 615.301 249.527 614.62 248.654C613.956 247.764 613.048 247.03 611.896 246.454C610.744 245.878 609.268 245.59 607.47 245.59C605.008 245.59 602.956 246.157 601.315 247.292C599.691 248.41 598.879 249.833 598.879 251.561C598.879 253.098 599.438 254.311 600.555 255.202C601.673 256.092 603.419 256.834 605.794 257.428L611.765 258.895C615.362 259.768 618.042 261.104 619.806 262.902C621.569 264.683 622.451 266.979 622.451 269.79C622.451 272.095 621.788 274.155 620.46 275.971C619.151 277.787 617.318 279.219 614.96 280.267C612.603 281.314 609.862 281.838 606.736 281.838C602.633 281.838 599.237 280.948 596.548 279.167C593.859 277.386 592.157 274.784 591.441 271.362L597.308 269.895C597.866 272.06 598.923 273.684 600.477 274.767C602.048 275.849 604.1 276.39 606.632 276.39C609.513 276.39 611.8 275.779 613.494 274.557C615.205 273.317 616.06 271.833 616.06 270.105C616.06 268.708 615.572 267.538 614.594 266.595C613.616 265.635 612.114 264.919 610.089 264.447L603.384 262.876C599.7 262.003 596.993 260.65 595.265 258.816C593.554 256.965 592.698 254.652 592.698 251.876C592.698 249.606 593.335 247.598 594.61 245.852C595.902 244.106 597.657 242.735 599.874 241.74C602.109 240.744 604.641 240.247 607.47 240.247C611.451 240.247 614.576 241.12 616.846 242.866C619.133 244.612 620.757 246.917 621.718 249.78ZM663.08 281.838C659.727 281.838 656.768 280.991 654.201 279.298C651.634 277.586 649.626 275.177 648.177 272.069C646.728 268.943 646.003 265.25 646.003 260.99C646.003 256.765 646.728 253.098 648.177 249.99C649.626 246.882 651.643 244.481 654.227 242.787C656.811 241.094 659.797 240.247 663.185 240.247C665.804 240.247 667.873 240.683 669.392 241.556C670.928 242.412 672.098 243.39 672.901 244.49C673.722 245.572 674.359 246.463 674.813 247.161H675.337V227.361H681.518V281H675.547V274.819H674.813C674.359 275.552 673.713 276.478 672.875 277.595C672.037 278.695 670.841 279.682 669.287 280.555C667.733 281.41 665.664 281.838 663.08 281.838ZM663.918 276.286C666.397 276.286 668.493 275.64 670.204 274.347C671.915 273.038 673.216 271.231 674.106 268.926C674.997 266.604 675.442 263.923 675.442 260.885C675.442 257.882 675.005 255.254 674.132 253.002C673.259 250.732 671.967 248.968 670.256 247.711C668.545 246.437 666.432 245.799 663.918 245.799C661.299 245.799 659.116 246.472 657.37 247.816C655.642 249.143 654.341 250.95 653.468 253.238C652.612 255.507 652.184 258.057 652.184 260.885C652.184 263.749 652.621 266.35 653.494 268.69C654.384 271.012 655.694 272.863 657.423 274.243C659.169 275.605 661.334 276.286 663.918 276.286ZM707.736 281.838C704.104 281.838 700.917 280.974 698.176 279.245C695.452 277.517 693.322 275.098 691.785 271.99C690.266 268.882 689.507 265.25 689.507 261.095C689.507 256.904 690.266 253.246 691.785 250.121C693.322 246.995 695.452 244.568 698.176 242.84C700.917 241.111 704.104 240.247 707.736 240.247C711.367 240.247 714.545 241.111 717.269 242.84C720.01 244.568 722.141 246.995 723.66 250.121C725.196 253.246 725.964 256.904 725.964 261.095C725.964 265.25 725.196 268.882 723.66 271.99C722.141 275.098 720.01 277.517 717.269 279.245C714.545 280.974 711.367 281.838 707.736 281.838ZM707.736 276.286C710.494 276.286 712.764 275.578 714.545 274.164C716.326 272.75 717.644 270.89 718.5 268.585C719.356 266.281 719.783 263.784 719.783 261.095C719.783 258.406 719.356 255.9 718.5 253.578C717.644 251.256 716.326 249.379 714.545 247.947C712.764 246.515 710.494 245.799 707.736 245.799C704.977 245.799 702.707 246.515 700.926 247.947C699.145 249.379 697.827 251.256 696.971 253.578C696.115 255.9 695.688 258.406 695.688 261.095C695.688 263.784 696.115 266.281 696.971 268.585C697.827 270.89 699.145 272.75 700.926 274.164C702.707 275.578 704.977 276.286 707.736 276.286ZM739.276 256.799V281H733.095V240.771H739.066V247.056H739.59C740.533 245.014 741.965 243.372 743.886 242.133C745.806 240.875 748.286 240.247 751.324 240.247C754.048 240.247 756.431 240.806 758.474 241.923C760.517 243.023 762.106 244.699 763.241 246.952C764.376 249.187 764.943 252.015 764.943 255.438V281H758.762V255.857C758.762 252.696 757.941 250.234 756.3 248.471C754.659 246.69 752.406 245.799 749.543 245.799C747.57 245.799 745.806 246.227 744.252 247.083C742.716 247.938 741.502 249.187 740.612 250.828C739.721 252.469 739.276 254.46 739.276 256.799ZM790.8 281.838C786.924 281.838 783.58 280.983 780.769 279.271C777.975 277.543 775.819 275.133 774.3 272.043C772.798 268.935 772.048 265.32 772.048 261.2C772.048 257.079 772.798 253.447 774.3 250.304C775.819 247.144 777.932 244.682 780.638 242.918C783.362 241.137 786.54 240.247 790.172 240.247C792.267 240.247 794.336 240.596 796.379 241.294C798.422 241.993 800.281 243.128 801.958 244.699C803.634 246.253 804.97 248.314 805.965 250.88C806.96 253.447 807.458 256.607 807.458 260.361V262.981H776.448V257.638H801.172C801.172 255.368 800.718 253.342 799.81 251.561C798.919 249.78 797.645 248.375 795.986 247.345C794.345 246.314 792.407 245.799 790.172 245.799C787.71 245.799 785.58 246.41 783.781 247.633C782 248.837 780.629 250.409 779.669 252.347C778.709 254.285 778.229 256.363 778.229 258.58V262.142C778.229 265.181 778.752 267.756 779.8 269.869C780.865 271.964 782.341 273.562 784.226 274.662C786.112 275.744 788.303 276.286 790.8 276.286C792.424 276.286 793.891 276.059 795.2 275.605C796.527 275.133 797.671 274.435 798.631 273.509C799.592 272.566 800.334 271.397 800.858 270L806.829 271.676C806.201 273.701 805.144 275.482 803.66 277.019C802.176 278.538 800.343 279.725 798.16 280.581C795.977 281.419 793.524 281.838 790.8 281.838Z" fill="#D2A5FF"/>
</svg>
