<svg width="320" height="380" viewBox="0 0 320 380" fill="none" xmlns="http://www.w3.org/2000/svg">
<ellipse cx="105.373" cy="103.683" rx="105.373" ry="103.683" transform="matrix(0.895475 0.445112 -0.440195 0.897902 110.14 0)" fill="#820AD1"/>
<ellipse cx="44.5738" cy="43.8587" rx="44.5738" ry="43.8587" transform="matrix(0.895475 0.445112 -0.440195 0.897902 116.701 107.888)" fill="white"/>
<path d="M16.6 347V294.7H27.2L27.5 304.2H27.6C30.6 298 36.1 293.3 45 293.3C56.4 293.3 63.7 301.2 63.7 313.7V347H52.8V316.1C52.8 307.2 48 301.9 40.4 301.9C32.6 301.9 27.5 307.6 27.5 317V347H16.6ZM89.3656 348.4C78.0656 348.4 70.9656 340.5 70.9656 328.1V294.7H81.8656V325.6C81.8656 334.5 86.4656 339.8 93.9656 339.8C101.666 339.8 106.666 334.1 106.666 324.7V294.7H117.566V347H106.966L106.666 337.5H106.566C103.566 343.7 98.2656 348.4 89.3656 348.4ZM143.541 348.4C131.441 348.4 122.741 342 122.541 331.3H132.841C132.941 336.5 137.141 339.7 143.541 339.7C149.541 339.7 153.441 337.2 153.441 333C153.441 328.8 150.641 326.4 141.141 324.4C130.141 322.1 123.741 318 123.741 308.7C123.741 300.3 130.941 293.3 142.641 293.3C154.541 293.3 162.441 300.4 162.741 309.9H152.641C152.441 305.3 148.541 302 142.741 302C137.341 302 133.941 304.7 133.941 308.3C133.941 312.4 136.341 313.8 145.941 316C158.841 319 163.741 324.4 163.741 332.8C163.741 342.1 155.741 348.4 143.541 348.4ZM168.787 365.2V294.7H179.188L179.388 305.6H179.488C182.488 298 188.587 293.3 197.988 293.3C211.188 293.3 221.188 303.9 221.188 320.9C221.188 337.8 211.288 348.4 197.888 348.4C190.188 348.4 183.388 345.2 179.688 339.6V365.2H168.787ZM194.888 339C203.988 339 210.288 331.6 210.288 320.9C210.288 310.1 203.988 302.7 194.888 302.7C185.688 302.7 179.288 310.2 179.288 320.9C179.288 331.7 185.688 339 194.888 339ZM250.083 348.4C233.983 348.4 223.583 336.7 223.583 320.8C223.583 304.9 233.983 293.3 250.083 293.3C266.183 293.3 276.583 305 276.583 320.8C276.583 336.8 266.183 348.4 250.083 348.4ZM250.083 338.8C260.183 338.8 266.183 331.3 266.183 320.8C266.183 310.3 260.183 303 250.083 303C239.983 303 233.983 310.3 233.983 320.8C233.983 331.4 239.983 338.8 250.083 338.8ZM300.458 348.4C290.158 348.4 284.158 342.3 284.158 329.8V304H275.358V297.4C283.858 294.7 287.758 291.1 289.158 281.3H295.058V294.7H307.458V304H295.058V329.5C295.058 336.2 298.058 339 303.158 339C304.958 339 306.958 338.6 308.458 337.9V347C306.458 347.9 303.258 348.4 300.458 348.4Z" fill="#820AD1"/>
</svg>
